<svg xmlns="http://www.w3.org/2000/svg" version="1.1" xmlns:xlink="http://www.w3.org/1999/xlink" xmlns:svgjs="http://svgjs.dev/svgjs" width="1500" height="852" viewBox="0 0 1500 852"><g transform="matrix(1,0,0,1,-0.9090909090909918,-0.5114807518700104)"><svg viewBox="0 0 396 225" data-background-color="#0c1d36" preserveAspectRatio="xMidYMid meet" height="852" width="1500" xmlns="http://www.w3.org/2000/svg" xmlns:xlink="http://www.w3.org/1999/xlink"><g id="tight-bounds" transform="matrix(1,0,0,1,0.2400000000000091,0.1350741422191959)"><svg viewBox="0 0 395.52 224.7298517155616" height="224.7298517155616" width="395.52"><g><svg viewBox="0 0 395.52 224.7298517155616" height="224.7298517155616" width="395.52"><g transform="matrix(1,0,0,1,0,138.89206407472858)"><svg viewBox="0 0 395.52 85.83778764083304" height="85.83778764083304" width="395.52"><g id="textblocktransform"><svg viewBox="0 0 395.52 85.83778764083304" height="85.83778764083304" width="395.52" id="textblock"><g><svg viewBox="0 0 395.52 85.83778764083304" height="85.83778764083304" width="395.52"><g transform="matrix(1,0,0,1,0,0)"><svg width="395.52" viewBox="2.86 -36.55 214.51 46.559999999999995" height="85.83778764083304" data-palette-color="#f9cc0b"><path d="M9.84-13.99L23.85-13.99 23.85-21Q23.85-22.44 23.3-23.72 22.75-25 21.8-25.95 20.85-26.9 19.57-27.45 18.29-28 16.85-28L16.85-28Q15.41-28 14.12-27.45 12.84-26.9 11.89-25.95 10.94-25 10.39-23.72 9.84-22.44 9.84-21L9.84-21 9.84-13.99ZM30.86-21L30.86 0 23.85 0 23.85-7.01 9.84-7.01 9.84 0 2.86 0 2.86-21Q2.86-23.9 3.96-26.45 5.05-29 6.95-30.91 8.84-32.81 11.39-33.91 13.94-35.01 16.85-35.01L16.85-35.01Q19.75-35.01 22.3-33.91 24.85-32.81 26.76-30.91 28.66-29 29.76-26.45 30.86-23.9 30.86-21L30.86-21ZM68.99-26.1L68.99-9.45Q68.99-7.4 68.21-5.58 67.43-3.76 66.07-2.42 64.72-1.07 62.9-0.29 61.08 0.49 59.01 0.49L59.01 0.49Q57.15 0.49 55.44-0.16 53.73-0.81 52.34-2.05L52.34-2.05Q50.97-0.81 49.28-0.16 47.58 0.49 45.7 0.49L45.7 0.49Q43.63 0.49 41.82-0.29 40.01-1.07 38.66-2.42 37.3-3.76 36.52-5.58 35.74-7.4 35.74-9.45L35.74-9.45 35.74-26.1 42.4-26.1 42.4-9.45Q42.4-8.76 42.66-8.17 42.92-7.57 43.37-7.12 43.82-6.67 44.42-6.41 45.02-6.15 45.7-6.15L45.7-6.15Q46.38-6.15 46.99-6.41 47.6-6.67 48.07-7.12 48.53-7.57 48.79-8.17 49.05-8.76 49.05-9.45L49.05-9.45 49.05-26.1 55.69-26.1 55.69-9.45Q55.69-8.76 55.95-8.17 56.22-7.57 56.67-7.12 57.13-6.67 57.72-6.41 58.32-6.15 59.01-6.15L59.01-6.15Q59.69-6.15 60.3-6.41 60.91-6.67 61.36-7.12 61.81-7.57 62.08-8.17 62.35-8.76 62.35-9.45L62.35-9.45 62.35-26.1 68.99-26.1ZM99.14-26.1L99.14 0 97.53 0 94.94-3.59Q93.99-2.73 92.93-1.99 91.87-1.25 90.69-0.7 89.52-0.15 88.29 0.17 87.06 0.49 85.79 0.49L85.79 0.49Q83.03 0.49 80.6-0.44 78.17-1.37 76.35-3.14 74.53-4.91 73.48-7.47 72.43-10.03 72.43-13.31L72.43-13.31Q72.43-16.36 73.48-18.91 74.53-21.46 76.35-23.29 78.17-25.12 80.6-26.14 83.03-27.15 85.79-27.15L85.79-27.15Q87.06-27.15 88.3-26.83 89.55-26.51 90.72-25.95 91.89-25.39 92.95-24.63 94.01-23.88 94.94-23L94.94-23 97.53-26.1 99.14-26.1ZM92.43-13.31L92.43-13.31Q92.43-14.67 91.9-15.95 91.38-17.24 90.47-18.23 89.57-19.21 88.36-19.81 87.15-20.41 85.79-20.41L85.79-20.41Q84.42-20.41 83.21-19.95 82-19.48 81.11-18.58 80.22-17.68 79.71-16.35 79.19-15.01 79.19-13.31L79.19-13.31Q79.19-11.6 79.71-10.27 80.22-8.94 81.11-8.03 82-7.13 83.21-6.67 84.42-6.2 85.79-6.2L85.79-6.2Q87.15-6.2 88.36-6.8 89.57-7.4 90.47-8.39 91.38-9.38 91.9-10.66 92.43-11.94 92.43-13.31ZM110.88-14.4L110.88 0 104.22 0 104.22-26.15 105.83-26.15 108.02-23.05Q109.64-24.51 111.69-25.31 113.74-26.1 115.93-26.1L115.93-26.1 121.82-26.1 121.82-19.46 115.93-19.46Q114.89-19.46 113.96-19.07 113.03-18.68 112.35-17.99 111.66-17.31 111.27-16.38 110.88-15.45 110.88-14.4L110.88-14.4ZM149.7-36.55L149.7 0 148.09 0 145.5-3.59Q144.55-2.73 143.48-1.99 142.42-1.25 141.25-0.7 140.08-0.15 138.84 0.17 137.61 0.49 136.34 0.49L136.34 0.49Q133.58 0.49 131.15-0.55 128.73-1.59 126.91-3.43 125.09-5.27 124.04-7.8 122.99-10.33 122.99-13.31L122.99-13.31Q122.99-16.26 124.04-18.8 125.09-21.34 126.91-23.19 128.73-25.05 131.15-26.1 133.58-27.15 136.34-27.15L136.34-27.15Q137.22-27.15 138.16-27 139.1-26.86 139.99-26.53 140.88-26.2 141.66-25.66 142.45-25.12 142.98-24.34L142.98-24.34 142.98-36.55 149.7-36.55ZM142.98-13.31L142.98-13.31Q142.98-14.67 142.46-15.95 141.93-17.24 141.03-18.23 140.13-19.21 138.92-19.81 137.71-20.41 136.34-20.41L136.34-20.41Q134.98-20.41 133.77-19.92 132.56-19.43 131.67-18.52 130.78-17.6 130.26-16.28 129.75-14.97 129.75-13.31L129.75-13.31Q129.75-11.87 130.26-10.57 130.78-9.28 131.67-8.3 132.56-7.32 133.77-6.76 134.98-6.2 136.34-6.2L136.34-6.2Q137.71-6.2 138.92-6.8 140.13-7.4 141.03-8.39 141.93-9.38 142.46-10.66 142.98-11.94 142.98-13.31ZM161.49-36.55L161.49 0 154.77 0 154.77-36.55 161.49-36.55ZM176.28 10.01L172.86 9.96 172.86 3.25 176.57 3.3Q177.55 3.3 178.45 2.98 179.36 2.66 180.12 2.1 180.89 1.54 181.48 0.77 182.07 0 182.43-0.9L182.43-0.9Q181.33-0.44 180.2 0.02 179.06 0.49 177.91 0.49L177.91 0.49Q175.5 0.49 173.37-0.37 171.25-1.22 169.65-2.8 168.05-4.37 167.14-6.63 166.22-8.89 166.22-11.69L166.22-11.69 166.22-26.15 172.86-26.15 172.86-11.69Q172.86-10.3 173.26-9.27 173.67-8.23 174.35-7.53 175.03-6.84 175.95-6.49 176.86-6.15 177.91-6.15L177.91-6.15Q178.94-6.15 179.86-6.63 180.77-7.1 181.45-7.89 182.14-8.67 182.53-9.66 182.92-10.64 182.92-11.69L182.92-11.69 182.92-26.15 189.63-26.15 189.63-3.3Q189.61-0.54 188.56 1.88 187.51 4.3 185.69 6.1 183.87 7.91 181.45 8.96 179.04 10.01 176.28 10.01L176.28 10.01ZM209.06 0L209.06 0 193.83 0 193.83-6.64 209.06-6.64Q209.75-6.64 210.24-7.13 210.72-7.62 210.72-8.3L210.72-8.3Q210.72-9.01 210.24-9.23 209.75-9.45 209.06-9.45L209.06-9.45 202.13-9.45Q200.4-9.45 198.88-10.11 197.37-10.77 196.25-11.9 195.12-13.04 194.48-14.55 193.83-16.06 193.83-17.8L193.83-17.8Q193.83-19.53 194.48-21.04 195.12-22.56 196.25-23.68 197.37-24.8 198.88-25.45 200.4-26.1 202.13-26.1L202.13-26.1 215.63-26.1 215.63-19.46 202.13-19.46Q201.45-19.46 200.96-18.97 200.47-18.48 200.47-17.8L200.47-17.8Q200.47-17.09 200.96-16.59 201.45-16.09 202.13-16.09L202.13-16.09 209.06-16.09Q210.77-16.09 212.29-15.52 213.8-14.94 214.92-13.92 216.05-12.89 216.71-11.45 217.37-10.01 217.37-8.3L217.37-8.3Q217.37-6.57 216.71-5.07 216.05-3.56 214.92-2.43 213.8-1.29 212.29-0.65 210.77 0 209.06 0Z" opacity="1" transform="matrix(1,0,0,1,0,0)" fill="#f9cc0b" class="wordmark-text-0" data-fill-palette-color="primary" id="text-0"></path></svg></g></svg></g></svg></g></svg></g><g transform="matrix(1,0,0,1,98.90348123364059,0)"><svg viewBox="0 0 197.7130375327188 118.62782251963127" height="118.62782251963127" width="197.7130375327188"><g><svg xmlns="http://www.w3.org/2000/svg" xmlns:xlink="http://www.w3.org/1999/xlink" version="1.1" x="0" y="0" viewBox="5 23 90 54" enable-background="new 0 0 100 100" xml:space="preserve" height="118.62782251963127" width="197.7130375327188" class="icon-icon-0" data-fill-palette-color="accent" id="icon-0"><path d="M95 77H68.8l6.8-12.8H95l-6.8 6L95 77zM5 77h26.3l-6.8-12.8H5l6.8 6L5 77zM69.5 58.2l0.4 1.2-1.3 0.1-1.8 0.1 0.2 1.8 0.2 1.3-1.3-0.2L64 62.2 64 64l-0.1 1.3L62.6 65l-1.7-0.6-0.4 1.8-0.3 1.3-1.2-0.6L57.5 66l-0.7 1.7-0.5 1.2-1-0.8L53.8 67l-1 1.5-0.7 1.1-0.9-1L50 67.3l-1.2 1.4-0.9 1-0.7-1.1-1-1.5-1.4 1.1-1 0.8-0.5-1.2L42.5 66l-1.6 0.9-1.2 0.6-0.3-1.3-0.4-1.8L37.4 65l-1.3 0.4L36 64 36 62.2l-1.8 0.2-1.3 0.2 0.2-1.3 0.2-1.8-1.8-0.1-1.3-0.1 0.4-1.2h-6l6.8 12.8H50h18.8l6.8-12.8H69.5zM72.5 47.5L70 49l1.8 2.3-2.7 1.1 1.4 2.6-2.9 0.6 0.8 2.5 0.1 0.3-2.9 0.1 0.4 2.9-2.9-0.4L63 64l-2.8-0.9L59.5 66 57 64.6l-1.1 2.7-2.3-1.8L52 68l-2-2.2L48 68l-1.6-2.5-2.3 1.8L43 64.6 40.5 66l-0.6-2.9L37 64l-0.1-2.9L34 61.5l0.4-2.9-2.9-0.1 0.1-0.3 0.8-2.5L29.5 55l1.4-2.6-2.7-1.1L30 49l-2.5-1.6 2.2-2-2.2-2L30 42l-1.8-2.3 2.7-1.1L29.5 36l2.9-0.6-0.9-2.8 2.9-0.1L34 29.5l2.9 0.4L37 27l2.8 0.9 0.6-2.9 2.6 1.4 1.1-2.7 2.3 1.8L48 23l2 2.2 2-2.2 1.6 2.5 2.3-1.8 1.1 2.7 2.6-1.4 0.6 2.9L63 27l0.1 2.9 2.9-0.4-0.4 2.9 2.9 0.1-0.9 2.8 2.9 0.6-1.4 2.6 2.7 1.1L70 42l2.5 1.6-2.2 2L72.5 47.5zM66.4 41.6H53.9L50 29.8l-3.9 11.9H33.6L43.7 49l-3.9 11.9L50 53.5l10.1 7.3L56.3 49 66.4 41.6z" fill="#f9f9f9" data-fill-palette-color="accent"></path></svg></g></svg></g><g></g></svg></g><defs></defs></svg><rect width="395.52" height="224.7298517155616" fill="none" stroke="none" visibility="hidden"></rect></g></svg></g></svg>